<svg xmlns="http://www.w3.org/2000/svg"  viewBox="0 0 48 48" width="480px" height="480px"><path fill="#ef4823" d="M7.527,35.249c0.925,0.023,1.85,0.045,2.775,0.068c-0.257,1.311-0.514,2.623-0.772,3.934 c1.189-0.53,1.654-0.278,2.725-1.018c0.128,0.894,0.323,1.515,0.447,2.298c2.429-1.102,4.545-3.949,5.63-6.386 c-1.123-1.626-2.517-3.065-4.106-4.24c-0.583-0.431-1.756-1.232-2.518-0.799c-0.555,0.316-0.675,1.373-0.905,1.91 C10.442,31.856,8.03,35.262,7.527,35.249z"/><path fill="#010101" d="M12.702,41.032c-0.082,0-0.163-0.021-0.237-0.06c-0.138-0.074-0.232-0.209-0.257-0.363 c-0.055-0.349-0.125-0.664-0.196-0.987c-0.043-0.193-0.086-0.39-0.127-0.596c-0.386,0.181-0.712,0.256-1.031,0.328 c-0.327,0.075-0.666,0.152-1.12,0.354c-0.171,0.073-0.369,0.051-0.515-0.066c-0.146-0.116-0.215-0.304-0.179-0.487l0.657-3.353 l-2.184-0.054c-0.276-0.007-0.494-0.236-0.487-0.513c0.006-0.238,0.179-0.434,0.403-0.479c0.528-0.33,2.576-3.152,2.914-3.938 c0.059-0.138,0.108-0.314,0.162-0.503c0.17-0.588,0.382-1.319,0.955-1.645c1.097-0.623,2.576,0.473,3.063,0.831 c1.64,1.213,3.06,2.679,4.221,4.358c0.1,0.144,0.116,0.328,0.046,0.487c-1.023,2.295-3.177,5.41-5.881,6.638 C12.843,41.018,12.772,41.032,12.702,41.032z M12.255,37.734c0.068,0,0.136,0.014,0.2,0.042c0.159,0.069,0.271,0.216,0.295,0.387 c0.067,0.47,0.154,0.862,0.238,1.243c0.027,0.124,0.055,0.248,0.081,0.372c1.976-1.16,3.721-3.525,4.689-5.579 c-1.067-1.492-2.354-2.801-3.829-3.891c-1.259-0.931-1.778-0.878-1.975-0.767c-0.22,0.125-0.375,0.662-0.488,1.054 c-0.067,0.231-0.132,0.449-0.204,0.619c-0.106,0.247-1.355,2.309-2.458,3.565l1.509,0.037c0.147,0.004,0.286,0.072,0.378,0.187 c0.093,0.115,0.129,0.265,0.101,0.409l-0.603,3.074c0.158-0.043,0.303-0.076,0.441-0.107c0.445-0.102,0.797-0.183,1.34-0.557 C12.056,37.765,12.155,37.734,12.255,37.734z"/><path fill="#ef4823" d="M34.545,40.031c-0.123-0.981-0.027-1.989,0.279-2.929c0.79,1.466,2.211,2.579,3.824,2.993 c-0.001-1.341-0.002-2.681-0.004-4.022c0.554,0.562,1.356,0.869,2.144,0.821c-1.298-2.853-2.596-5.705-3.893-8.558 c-0.049-0.108-0.115-0.23-0.232-0.253c-0.12-0.023-0.227,0.072-0.312,0.16c-1.303,1.351-2.421,2.88-3.314,4.531 c-0.328,0.606-0.663,1.266-1.177,1.74c-0.178,0.165-0.85,0.396-0.933,0.539c-0.158,0.271,0.178,0.689,0.339,0.976 C32.116,37.541,33.228,38.903,34.545,40.031z"/><path fill="#010101" d="M38.647,40.596c-0.042,0-0.083-0.005-0.124-0.016c-1.353-0.347-2.588-1.155-3.472-2.241 c-0.074,0.54-0.078,1.091-0.011,1.63c0.025,0.205-0.077,0.405-0.26,0.503c-0.182,0.098-0.404,0.074-0.562-0.061 c-1.364-1.17-2.504-2.562-3.39-4.136l-0.093-0.152c-0.208-0.334-0.523-0.839-0.244-1.319c0.123-0.211,0.36-0.324,0.689-0.481 c0.11-0.053,0.296-0.142,0.345-0.181c0.407-0.375,0.706-0.93,0.995-1.466l0.074-0.138c0.915-1.693,2.057-3.255,3.393-4.64 c0.091-0.095,0.369-0.385,0.765-0.305c0.383,0.073,0.537,0.409,0.595,0.535l3.894,8.56c0.068,0.15,0.059,0.324-0.026,0.465 s-0.234,0.231-0.398,0.241c-0.579,0.036-1.158-0.091-1.673-0.349l0.003,3.049c0,0.155-0.071,0.301-0.193,0.396 C38.865,40.56,38.758,40.596,38.647,40.596z M34.823,36.603c0.183,0,0.353,0.1,0.44,0.263c0.618,1.148,1.668,2.065,2.883,2.544 l-0.003-3.335c0-0.203,0.122-0.386,0.311-0.463c0.188-0.076,0.404-0.032,0.546,0.112c0.267,0.271,0.604,0.47,0.968,0.579 l-3.425-7.53c-1.224,1.302-2.242,2.715-3.067,4.241l-0.073,0.137c-0.313,0.58-0.667,1.238-1.204,1.732 c-0.139,0.128-0.345,0.227-0.584,0.341c-0.054,0.026-0.125,0.061-0.189,0.093c0.045,0.091,0.116,0.205,0.161,0.277l0.115,0.19 c0.633,1.125,1.403,2.149,2.301,3.058c0.031-0.644,0.147-1.283,0.346-1.894c0.062-0.19,0.231-0.326,0.431-0.344 C34.793,36.604,34.809,36.603,34.823,36.603z"/><path fill="#fcbf95" d="M10.193,33.529c-0.956-1.216-1.753-2.556-2.366-3.976c-0.432-1.001-0.776-2.062-0.793-3.153 c-0.017-1.091,0.325-2.221,1.103-2.986c0.778-0.765,2.027-1.082,3.009-0.608c0.851,0.411,1.36,1.3,1.715,2.175 c1.006,2.479,1.189,5.285,0.514,7.874c-0.094,0.362-0.216,0.737-0.492,0.989C12.33,34.349,11.298,34.851,10.193,33.529z"/><path fill="#010101" d="M11.678,34.873c-0.043,0-0.086-0.001-0.131-0.004c-0.623-0.043-1.208-0.386-1.738-1.021l-0.01-0.012 c-0.983-1.253-1.802-2.628-2.431-4.086c-0.554-1.281-0.818-2.344-0.834-3.343c-0.021-1.325,0.435-2.546,1.252-3.35 c0.975-0.96,2.448-1.248,3.578-0.702c1.083,0.523,1.638,1.642,1.96,2.438c1.049,2.584,1.238,5.491,0.534,8.188 c-0.114,0.441-0.271,0.897-0.639,1.232C12.884,34.521,12.351,34.873,11.678,34.873z M10.581,33.213 c0.347,0.414,0.694,0.635,1.034,0.658c0.376,0.018,0.718-0.2,0.931-0.396c0.165-0.151,0.258-0.407,0.345-0.745 c0.65-2.49,0.476-5.175-0.492-7.561c-0.415-1.021-0.882-1.629-1.47-1.914c-0.746-0.36-1.772-0.144-2.441,0.515 c-0.623,0.613-0.97,1.568-0.953,2.622c0.013,0.864,0.252,1.805,0.752,2.962C8.88,30.731,9.652,32.03,10.581,33.213z"/><path fill="#fcbf95" d="M38.638,34.232c-0.465,0.402-1.072,0.8-1.651,0.594c-0.555-0.197-0.788-0.851-0.874-1.434 c-0.284-1.906,0.302-3.642,0.878-5.427c0.358-1.108,0.612-2.705,1.547-3.508c0.972-0.834,2.614-0.504,3.37,0.474 c0.966,1.25,0.603,3.211,0.121,4.571C41.374,31.354,40.11,32.959,38.638,34.232z"/><path fill="#010101" d="M37.315,35.383c-0.161,0-0.327-0.024-0.495-0.084c-0.642-0.229-1.058-0.861-1.202-1.831 c-0.293-1.973,0.289-3.772,0.852-5.513l0.046-0.142c0.072-0.227,0.141-0.474,0.212-0.729c0.295-1.064,0.63-2.271,1.485-3.005 c0.525-0.451,1.235-0.657,1.992-0.58c0.834,0.085,1.618,0.507,2.099,1.128c1.185,1.532,0.632,3.818,0.197,5.044 c-0.63,1.774-1.853,3.482-3.536,4.938C38.723,34.821,38.073,35.383,37.315,35.383z M39.896,24.484c-0.4,0-0.762,0.123-1.032,0.354 c-0.624,0.535-0.915,1.585-1.172,2.512c-0.075,0.271-0.147,0.531-0.225,0.77l-0.046,0.143c-0.552,1.706-1.072,3.317-0.814,5.058 c0.04,0.267,0.174,0.902,0.548,1.035c0.274,0.097,0.661-0.072,1.156-0.501l0,0c1.554-1.344,2.676-2.905,3.247-4.517 c0.296-0.833,0.883-2.899-0.045-4.099c-0.312-0.402-0.851-0.688-1.409-0.745C40.033,24.487,39.964,24.484,39.896,24.484z"/><path fill="#fcbf95" d="M13.309,36.638C16.395,41.936,21.065,45.5,24.5,45.5c3,0,11.235-5.215,12.649-10.872 c1-4,2.926-11.346,1.46-15.074c-2.108-5.362-8.112-8.629-13.868-8.36c-4.243,0.198-12.327,3.006-13.698,7.653 c-0.611,2.072-0.121,5.254-0.118,7.398C10.931,29.614,11.602,33.709,13.309,36.638z"/><path fill="#010101" d="M24.5,46c-3.719,0-8.498-3.746-11.623-9.109c-1.529-2.624-2.445-6.604-2.451-10.645 c-0.001-0.615-0.043-1.316-0.087-2.052c-0.109-1.845-0.233-3.935,0.225-5.488c1.464-4.961,9.863-7.81,14.154-8.011 c6.228-0.292,12.266,3.357,14.356,8.676c1.475,3.752-0.285,10.773-1.337,14.967l-0.103,0.411C36.181,40.561,27.724,46,24.5,46z M13.74,36.387C16.648,41.378,21.174,45,24.5,45c2.672,0,10.787-4.989,12.164-10.493l0.104-0.412 c1.022-4.078,2.733-10.904,1.376-14.358c-1.939-4.933-7.558-8.317-13.379-8.043c-3.925,0.184-11.931,2.851-13.242,7.295 c-0.409,1.385-0.29,3.383-0.186,5.146c0.045,0.757,0.088,1.478,0.089,2.11C11.432,30.117,12.297,33.909,13.74,36.387z"/><path fill="#ef4823" d="M18.862,17.011c-3.941,3.006-6.463,6.545-6.798,11.489c-1.438-2.44-1.245-4.19-1.819-6.415 c-1.053-0.383-2.777,0.447-5.202,1.532c0.702-3.191,1.604-5.125,3.718-7.277c-1.436-1.293-3.01-4.299-2.308-7.205 c1.951,2.088,5.191,2.856,7.872,1.866c-2.464-1.258-2.856-2.906-2.788-5.672c4.142,2.709,5.966,1.155,10.915,1.197 c-0.509-1.542-0.431-1.34-0.957-3.351c1.819,0.622,3.447,1.197,5.004,2.686c1.268-1.68,3.374-3.356,6.964-3.739 c-1.245,1.628-1.526,3.312-1.436,4.596c3.064,0.239,9.239,2.92,10.915,5.377c-1.401,0.513-2.802,1.027-4.203,1.54 c1.717,2.275,3.909,4.19,6.394,5.587c-2.11,0.831-2.875,1.09-5.111,0.708c0.335,3.112-0.075,6.168-1.368,8.996 c-0.349-2.826-2.27-7.416-4.281-10.097c0.209,0.973-0.671,3.989-0.462,4.962c-1.553-1.949-4.018-4.258-5.57-6.207 c0.362,1.716,0.308,4.412,0.67,6.128c-0.95-0.869-1.731-0.95-2.681-1.819c0.387,2.835,0.474,2.623,0.862,5.457 C18.454,23.032,18.862,17.011,18.862,17.011z"/><path fill="#010101" d="M38.653,29.427c-0.025,0-0.051-0.002-0.076-0.006c-0.221-0.034-0.393-0.211-0.42-0.433 c-0.294-2.376-1.739-6.023-3.355-8.635c-0.048,0.332-0.107,0.684-0.168,1.042c-0.149,0.89-0.319,1.899-0.234,2.292 c0.048,0.227-0.065,0.458-0.275,0.557c-0.208,0.099-0.46,0.041-0.605-0.141c-0.763-0.958-1.776-2.033-2.757-3.072 c-0.571-0.605-1.153-1.223-1.695-1.826c0.042,0.462,0.075,0.938,0.108,1.409c0.074,1.067,0.151,2.171,0.325,2.995 c0.045,0.213-0.053,0.43-0.241,0.538s-0.425,0.081-0.586-0.065c-0.431-0.394-0.825-0.611-1.243-0.84 c-0.144-0.079-0.288-0.158-0.437-0.246c0.102,0.665,0.181,1.101,0.26,1.538c0.119,0.661,0.239,1.322,0.434,2.75 c0.025,0.183-0.053,0.365-0.203,0.474c-0.151,0.106-0.348,0.123-0.514,0.042c-6.879-3.4-8.278-7.826-8.55-9.801 c-3.711,3.054-5.579,6.422-5.857,10.537c-0.015,0.219-0.171,0.402-0.384,0.452c-0.212,0.054-0.436-0.043-0.546-0.232 c-1.037-1.76-1.271-3.208-1.495-4.609c-0.086-0.531-0.174-1.078-0.306-1.645c-0.871-0.105-2.329,0.561-4.149,1.379l-0.436,0.195 c-0.173,0.078-0.374,0.051-0.52-0.069c-0.146-0.119-0.214-0.311-0.173-0.495c0.711-3.232,1.647-5.166,3.504-7.159 C6.509,14.7,5.311,11.73,5.967,9.018c0.044-0.179,0.182-0.319,0.359-0.366C6.505,8.604,6.693,8.66,6.818,8.794 c1.563,1.673,4.008,2.438,6.258,2.031c-1.768-1.294-2.1-3.005-2.039-5.508c0.005-0.181,0.106-0.346,0.268-0.431 c0.16-0.083,0.354-0.075,0.506,0.024c2.749,1.798,4.371,1.622,6.828,1.354c0.91-0.099,1.922-0.209,3.125-0.234 c-0.226-0.698-0.292-0.952-0.505-1.776l-0.247-0.953c-0.047-0.178,0.008-0.368,0.144-0.493c0.136-0.125,0.33-0.165,0.502-0.107 c1.592,0.545,3.233,1.107,4.781,2.432c1.696-2.016,4.039-3.196,6.972-3.508c0.198-0.025,0.391,0.077,0.488,0.252 c0.099,0.174,0.083,0.39-0.038,0.549c-1.082,1.414-1.349,2.811-1.35,3.842c3.186,0.436,9.089,2.971,10.844,5.545 c0.087,0.127,0.11,0.288,0.063,0.435c-0.047,0.147-0.159,0.264-0.304,0.317l-3.558,1.304c1.604,1.98,3.604,3.672,5.821,4.917 c0.168,0.095,0.267,0.278,0.254,0.47c-0.014,0.192-0.136,0.36-0.315,0.431c-1.965,0.774-2.866,1.075-4.738,0.833 c0.233,3.075-0.26,5.97-1.469,8.614C39.025,29.314,38.847,29.427,38.653,29.427z M34.372,18.33c0.153,0,0.303,0.071,0.4,0.2 c1.685,2.247,3.313,5.788,4.042,8.626c0.743-2.235,0.982-4.64,0.71-7.172c-0.017-0.156,0.04-0.311,0.154-0.418 c0.114-0.108,0.276-0.156,0.427-0.128c1.738,0.296,2.471,0.205,3.886-0.313c-2.171-1.368-4.11-3.146-5.652-5.188 c-0.095-0.126-0.125-0.291-0.08-0.442c0.045-0.152,0.159-0.274,0.308-0.328l3.545-1.3c-1.979-2.098-7.292-4.429-10.124-4.65 C31.74,7.197,31.545,7,31.527,6.753c-0.069-1.011,0.054-2.449,0.902-3.968c-2.333,0.465-4.19,1.599-5.532,3.378 c-0.086,0.114-0.217,0.186-0.359,0.197c-0.142,0.009-0.282-0.038-0.386-0.137c-1.243-1.189-2.558-1.772-3.938-2.268l0.014,0.049 c0.267,1.032,0.294,1.14,0.699,2.365c0.051,0.153,0.024,0.321-0.07,0.451c-0.095,0.129-0.245,0.206-0.404,0.206 c-0.071,0.007-0.133-0.001-0.197-0.001c-1.369,0-2.503,0.124-3.508,0.233c-2.263,0.246-4.092,0.446-6.714-1.041 c0.043,2.124,0.543,3.329,2.52,4.338c0.177,0.09,0.283,0.277,0.271,0.475c-0.012,0.198-0.14,0.371-0.326,0.439 c-2.559,0.945-5.593,0.392-7.698-1.329c-0.186,2.418,1.146,4.793,2.295,5.827c0.102,0.091,0.161,0.22,0.166,0.356 c0.004,0.137-0.048,0.269-0.144,0.366C7.359,18.48,6.45,20.09,5.765,22.746c2.046-0.914,3.555-1.53,4.651-1.13 c0.155,0.056,0.272,0.185,0.313,0.345c0.185,0.717,0.292,1.382,0.396,2.025c0.147,0.917,0.289,1.799,0.649,2.761 c0.699-3.907,2.888-7.162,6.783-10.134c0.155-0.119,0.364-0.136,0.539-0.043c0.172,0.092,0.275,0.277,0.264,0.472 c-0.014,0.225-0.229,5.372,7.199,9.417c-0.117-0.786-0.204-1.268-0.291-1.749c-0.119-0.661-0.239-1.322-0.434-2.75 c-0.028-0.208,0.076-0.413,0.263-0.51c0.186-0.099,0.414-0.068,0.57,0.074c0.431,0.394,0.825,0.611,1.243,0.84 c0.14,0.077,0.281,0.154,0.425,0.239c-0.068-0.615-0.114-1.274-0.159-1.921c-0.074-1.067-0.151-2.171-0.325-2.995 c-0.048-0.227,0.066-0.457,0.276-0.556c0.209-0.098,0.459-0.041,0.604,0.141c0.763,0.958,1.776,2.033,2.757,3.072 c0.667,0.707,1.349,1.43,1.964,2.128c0.051-0.389,0.122-0.812,0.195-1.244c0.149-0.892,0.319-1.902,0.235-2.295 c-0.05-0.229,0.067-0.463,0.28-0.561C34.231,18.344,34.302,18.33,34.372,18.33z"/><path fill="#010101" d="M22.105,29.022c-0.174,0-0.344-0.092-0.436-0.254c-0.524-0.93-1.434-1.701-2.493-2.117 c-1.07-0.42-2.332-0.494-3.459-0.199c-0.277,0.07-0.541-0.093-0.61-0.358c-0.069-0.268,0.092-0.541,0.358-0.61 c1.349-0.349,2.794-0.265,4.076,0.236c1.289,0.507,2.354,1.414,2.999,2.557c0.136,0.241,0.051,0.546-0.189,0.682 C22.273,29.002,22.189,29.022,22.105,29.022z"/><path fill="#c56528" d="M16.83,27.456c-0.072,0.64,0.271,1.285,0.791,1.665c0.371,0.271,0.835,0.423,1.293,0.389 s0.906-0.261,1.178-0.632c0.422-0.576,0.353-1.427-0.078-1.997C19.148,25.738,17.021,25.763,16.83,27.456z"/><path fill="#010101" d="M18.783,30.015c-0.51,0-1.021-0.171-1.457-0.49c-0.69-0.505-1.08-1.339-0.993-2.124l0,0 c0.097-0.86,0.633-1.506,1.434-1.726c0.956-0.265,2.043,0.108,2.646,0.904c0.584,0.772,0.619,1.863,0.083,2.595 c-0.349,0.477-0.926,0.788-1.544,0.835C18.896,30.013,18.839,30.015,18.783,30.015z M17.327,27.512 c-0.048,0.429,0.189,0.913,0.589,1.206c0.289,0.21,0.637,0.324,0.961,0.293c0.325-0.023,0.636-0.188,0.812-0.428 c0.272-0.371,0.239-0.986-0.073-1.4c-0.351-0.462-1.032-0.697-1.583-0.544C17.746,26.717,17.393,26.933,17.327,27.512 L17.327,27.512z"/><path fill="#010101" d="M18.567,28.423c-0.129,0-0.258-0.037-0.374-0.11c-0.205-0.129-0.328-0.345-0.328-0.578 s0.123-0.449,0.328-0.578s0.451-0.146,0.663-0.044c0.238,0.115,0.397,0.366,0.415,0.654c0.01,0.164-0.061,0.322-0.189,0.424 c-0.021,0.017-0.043,0.031-0.066,0.044c-0.043,0.05-0.097,0.092-0.159,0.122C18.765,28.4,18.666,28.423,18.567,28.423z"/><path fill="#010101" d="M28.435,28.336c-0.117,0-0.235-0.041-0.33-0.125c-0.207-0.182-0.228-0.498-0.045-0.705 c0.867-0.986,2.097-1.655,3.462-1.884c1.352-0.23,2.789-0.013,4.036,0.608c0.247,0.122,0.348,0.423,0.225,0.67 c-0.123,0.248-0.425,0.35-0.67,0.225c-1.043-0.518-2.293-0.707-3.426-0.517c-1.122,0.188-2.171,0.755-2.877,1.558 C28.711,28.278,28.573,28.336,28.435,28.336z"/><path fill="#c56528" d="M33.816,27.878c-0.061,0.641-0.53,1.202-1.117,1.467c-0.419,0.189-0.904,0.242-1.346,0.114 c-0.442-0.128-0.832-0.442-1.022-0.861c-0.295-0.65-0.051-1.47,0.488-1.938C31.903,25.72,33.979,26.183,33.816,27.878z"/><path fill="#010101" d="M31.86,30.029c-0.22,0-0.437-0.029-0.646-0.09c-0.593-0.171-1.094-0.595-1.338-1.135 c-0.375-0.826-0.116-1.887,0.615-2.521c0.742-0.645,1.909-0.785,2.774-0.341c0.739,0.381,1.131,1.122,1.048,1.984 c-0.076,0.786-0.629,1.521-1.41,1.874C32.568,29.952,32.212,30.029,31.86,30.029z M32.155,26.682c-0.365,0-0.738,0.123-1.007,0.356 c-0.393,0.341-0.551,0.936-0.361,1.354c0.124,0.271,0.394,0.496,0.705,0.586c0.313,0.089,0.676,0.059,1.001-0.09 c0.453-0.204,0.784-0.629,0.825-1.058l0,0c0.056-0.58-0.246-0.864-0.51-1C32.612,26.73,32.386,26.682,32.155,26.682z"/><path fill="#010101" d="M32.059,28.48c-0.147,0-0.291-0.047-0.409-0.138c-0.062-0.048-0.109-0.106-0.143-0.172 c-0.013-0.013-0.025-0.026-0.038-0.041c-0.104-0.126-0.149-0.295-0.105-0.452c0.077-0.275,0.283-0.487,0.537-0.552 c0.231-0.056,0.47,0.01,0.646,0.18c0.173,0.168,0.248,0.404,0.2,0.632c-0.048,0.229-0.212,0.414-0.438,0.498 C32.227,28.466,32.142,28.48,32.059,28.48z"/><path fill="#010101" d="M29.526,39.021c-0.341,0-0.702-0.033-1.085-0.102c-0.385-0.068-0.766-0.163-1.146-0.258 c-0.549-0.138-1.066-0.267-1.594-0.314c-0.92-0.084-1.828,0.077-2.795,0.247c-0.366,0.064-0.732,0.129-1.1,0.18 c-1.841,0.258-3.231,0.018-4.251-0.729c-0.223-0.163-0.271-0.476-0.108-0.698s0.477-0.271,0.698-0.108 c0.8,0.585,1.952,0.761,3.523,0.545c0.355-0.05,0.709-0.111,1.063-0.174c0.989-0.174,2.014-0.356,3.059-0.259 c0.604,0.055,1.185,0.2,1.746,0.34c0.358,0.09,0.717,0.18,1.08,0.244c1.017,0.181,1.817,0.079,2.38-0.303 c0.229-0.153,0.539-0.096,0.694,0.134c0.154,0.229,0.095,0.539-0.134,0.694C31.007,38.833,30.326,39.021,29.526,39.021z"/><path fill="#010101" d="M25.605,33.409c-0.257,0-0.476-0.197-0.497-0.459l-0.032-0.364c-0.085-0.946-0.182-2.019,0.063-3.23 c0.055-0.271,0.317-0.445,0.59-0.391c0.271,0.055,0.445,0.319,0.391,0.59c-0.217,1.068-0.127,2.063-0.048,2.941l0.032,0.372 c0.023,0.274-0.182,0.517-0.457,0.539C25.634,33.408,25.62,33.409,25.605,33.409z"/><g><path fill="#010101" d="M17.751,30.188c-0.621,0-1.18-0.062-1.81-0.231c-0.267-0.071-0.425-0.346-0.353-0.612 c0.071-0.266,0.345-0.423,0.612-0.353c0.845,0.226,1.564,0.229,2.603,0.148c0.269-0.026,0.515,0.187,0.536,0.462 c0.021,0.275-0.187,0.515-0.462,0.536C18.467,30.168,18.099,30.188,17.751,30.188z"/></g><g><path fill="#010101" d="M33.514,30.252c-0.62,0-1.178-0.063-1.807-0.232c-0.267-0.071-0.425-0.346-0.353-0.612 c0.071-0.268,0.352-0.424,0.612-0.353c0.845,0.228,1.566,0.228,2.602,0.148c0.271-0.017,0.516,0.186,0.537,0.461 c0.021,0.275-0.186,0.516-0.461,0.537C34.231,30.232,33.863,30.252,33.514,30.252z"/></g><g><path fill="#010101" d="M21.269,24.4c-0.089,0-0.179-0.023-0.26-0.073c-1.258-0.765-2.596-1.415-3.976-1.93 c-0.259-0.096-0.391-0.384-0.294-0.643c0.097-0.259,0.386-0.39,0.644-0.293c1.439,0.537,2.834,1.214,4.146,2.012 c0.236,0.144,0.311,0.451,0.167,0.687C21.602,24.314,21.437,24.4,21.269,24.4z"/></g><g><path fill="#010101" d="M29.347,24.09c-0.194,0-0.379-0.114-0.46-0.304c-0.108-0.254,0.01-0.548,0.264-0.656 c1.091-0.465,2.226-0.855,3.372-1.16c0.27-0.07,0.54,0.089,0.611,0.355c0.07,0.267-0.088,0.541-0.355,0.611 c-1.1,0.292-2.188,0.666-3.235,1.113C29.479,24.078,29.412,24.09,29.347,24.09z"/></g><g><path fill="#010101" d="M21.855,16.899c-0.212,0-0.408-0.136-0.477-0.348c-0.464-1.454-0.326-3.065,0.377-4.419 c0.702-1.354,1.938-2.395,3.394-2.854c0.21-0.065,0.437,0.013,0.563,0.193c0.124,0.181,0.116,0.422-0.021,0.594 c-0.777,0.98-1.014,2.375-0.602,3.556c0.091,0.261-0.048,0.546-0.309,0.637c-0.257,0.09-0.546-0.047-0.637-0.308 c-0.341-0.981-0.33-2.079-0.005-3.068c-0.623,0.44-1.143,1.026-1.496,1.71c-0.582,1.12-0.695,2.452-0.312,3.655 c0.084,0.263-0.062,0.544-0.324,0.628C21.957,16.892,21.905,16.899,21.855,16.899z"/></g><g><path fill="#010101" d="M35.146,14.803c-0.189,0-0.371-0.108-0.455-0.292c-0.622-1.361-1.781-2.445-3.181-2.973 c-0.227-0.085-0.359-0.321-0.314-0.559c0.044-0.238,0.239-0.376,0.494-0.409c0.758,0.005,1.503,0.136,2.217,0.39 c0.26,0.093,0.396,0.379,0.303,0.639c-0.045,0.127-0.136,0.224-0.247,0.28c0.688,0.615,1.252,1.37,1.639,2.216 c0.114,0.251,0.004,0.548-0.247,0.663C35.287,14.788,35.216,14.803,35.146,14.803z"/></g><g><path fill="#010101" d="M31.437,16.896c-0.216,0-0.415-0.141-0.479-0.358c-0.235-0.797-0.776-1.506-1.483-1.945 c-0.234-0.146-0.307-0.454-0.161-0.688c0.146-0.235,0.456-0.305,0.688-0.161c0.913,0.566,1.61,1.481,1.915,2.511 c0.078,0.265-0.073,0.543-0.338,0.621C31.531,16.89,31.483,16.896,31.437,16.896z"/></g><g><path fill="#010101" d="M11.979,20.147c-0.007,0-0.015,0-0.022,0c-0.275-0.012-0.489-0.246-0.477-0.522 c0.104-2.319,1.275-4.532,3.136-5.921c0.221-0.165,0.534-0.12,0.699,0.102s0.12,0.535-0.102,0.7 c-1.622,1.21-2.645,3.141-2.735,5.164C12.466,19.938,12.245,20.147,11.979,20.147z"/></g></svg>